# xmcd
#
# Track frame offsets:
# 150
# 11052
# 20712
# 32027
# 44352
# 62315
# 71830
# 80602
# 88590
# 98135
# 114970
# 121815
# 132355
# 145700
# 155677
# 165775
# 174012
# 185345
# 191387
# 203307
#
# Disc length: 2842 seconds
#
#
# Revision: 0
# Processed by: cddbd v1.5.2PL0 Copyright (c) Steve Scherf et al.
# Submitted via: FreeRIP 2.60 
#
DISCID=f50b1814
DTITLE=The Levee Singers - Finally...a new CD
DYEAR=1900
DGENRE=Country
TTITLE0=Don't Go Changin'
TTITLE1=Delilah
TTITLE2=Old Flame
TTITLE3=Alexander's Ragtime Band
TTITLE4=Amazing Grace Medley
TTITLE5=Auctioneer
TTITLE6=Love Me
TTITLE7=Cabaret
TTITLE8=San Fransico
TTITLE9=Today I Started Loving You Again Medley
TTITLE10=One Of These Days
TTITLE11=All The Gold
TTITLE12=Gambler
TTITLE13=Right Or Wrong
TTITLE14=Paper Doll
TTITLE15=One
TTITLE16=Southern Nights
TTITLE17=Mr. Sandman
TTITLE18=Goin' Out Of My Head Medley
TTITLE19=Bill Bailey/Saints
EXTD=
EXTT0=
EXTT1=
EXTT2=
EXTT3=
EXTT4=
EXTT5=
EXTT6=
EXTT7=
EXTT8=
EXTT9=
EXTT10=
EXTT11=
EXTT12=
EXTT13=
EXTT14=
EXTT15=
EXTT16=
EXTT17=
EXTT18=
EXTT19=
PLAYORDER=
